<svg viewBox="0 0 260 260" xmlns="http://www.w3.org/2000/svg">
  <defs>
    <linearGradient id="body" x1="58" y1="52" x2="202" y2="200" gradientUnits="userSpaceOnUse">
      <stop offset="0" stop-color="#9b6cf8"/>
      <stop offset="1" stop-color="#7c3aed"/>
    </linearGradient>
  </defs>
  <g stroke="#7c3aed" stroke-width="18" stroke-linecap="round" fill="none">
    <path d="M 72,116 Q 52,100 47,80"/>
    <path d="M 188,116 Q 208,100 213,80"/>
  </g>
  <circle cx="47" cy="80" r="11" fill="#9b6cf8"/>
  <circle cx="213" cy="80" r="11" fill="#9b6cf8"/>
  <g fill="#7c3aed">
    <ellipse cx="112" cy="187" rx="16" ry="11"/>
    <ellipse cx="148" cy="187" rx="16" ry="11"/>
  </g>
  <path d="M 110,168 C 92,168 78,178 66,186 C 54,193 48,188 52,178 C 58,162 74,154 80,142 Z" fill="url(#body)"/>
  <rect x="58" y="52" width="144" height="132" rx="56" fill="url(#body)"/>
  <g fill="#a3e635" opacity="0.85">
    <circle cx="92" cy="135" r="9"/>
    <circle cx="168" cy="135" r="9"/>
  </g>
  <ellipse cx="108" cy="113" rx="14" ry="17" fill="#ffffff"/>
  <ellipse cx="152" cy="113" rx="14" ry="17" fill="#ffffff"/>
  <circle cx="111" cy="117" r="7" fill="#0f0f13"/>
  <circle cx="149" cy="117" r="7" fill="#0f0f13"/>
  <circle cx="108" cy="112" r="2.6" fill="#ffffff"/>
  <circle cx="146" cy="112" r="2.6" fill="#ffffff"/>
  <path d="M 112,141 Q 130,157 148,141" fill="none" stroke="#0f0f13" stroke-width="6" stroke-linecap="round"/>
</svg>
